<svg xmlns="http://www.w3.org/2000/svg" width="2498" height="1484"><path d="M417 222h7l1 2 3 1c1.063 2.813 1.063 2.813 2 6 1.378 3.307 1.867 3.912 5 6a100.38 100.38 0 0 1 2 6c1.508 4.793 1.508 4.793 5 8l.375 2.938c.274 3.178.274 3.178 2.688 4.437L447 259v5l4-1-.188 2.25c.224 3.275.885 4.447 3.188 6.75 2.094.796 2.094.796 4 1l-.688 2.25c-.4 3.53.59 4.007 2.688 6.75.688 3.75.688 3.75 1 7l3 1c1 2.188 1 2.188 2 5 1.679 4.255 1.679 4.255 5 7l1 5 2 1 2 6 2 1 .438 2.938L479 321l3 2c.683 1.325 1.35 2.658 2 4l2 1c.343 1.665.674 3.332 1 5 .916 2.378 1.952 4.675 3 7l4-1-.563 1.75c-.484 2.492-.332 3.89.563 6.25l2 1c.625 3.063.625 3.063 1 6l5-1-1 6 3 2v4l3 1 1 6 3 1 .375 2.938L512 379l2 1 2 5 2 1 1 5 2 1c.694 1.99 1.356 3.993 2 6 1.664 4.267 1.664 4.267 5 7l2 6 2 1c.625 3.063.625 3.063 1 6l3 1c1 2.188 1 2.188 2 5 2.092 4.736 2.092 4.736 6 8v5l3 2c.364 1.66.7 3.327 1 5l2 1 .813 2.25c1.461 3.384 3.532 5.228 6.187 7.75 2 3 2 3 1.625 5.188L558 462l3 2 1 5 3 2c.364 1.66.7 3.327 1 5l2 1c.681 1.66 1.347 3.328 2 5l2 2 .5 2.063.5 1.937 2 1c.68 1.996 1.346 3.996 2 6l2 2c.707 1.65 1.366 3.32 2 5 1.529 4.784 1.529 4.784 5 8l.875 2.25c1.002 2.85 1.002 2.85 3.125 5.125 2 2.625 2 2.625 3.063 6.375L594 527l3 1 1 6 3 1 .375 2.938L602 541l2 1c.625 3.063.625 3.063 1 6l3 1c2.343 3.244 3.436 6.051 4 10l3 1 .375 2.938L616 566l2 1 2 6 2 1 .438 2.938L623 580l3 2 1 3 2 1 2 6 2 1 .438 2.875c.61 3.391 1.147 3.912 3.562 6.125.352 1.329.688 2.662 1 4l2 1a206.38 206.38 0 0 1 2 5c1.841 3.664 1.841 3.664 5 6 .625 3.063.625 3.063 1 6l3 1 .313 2.875c.372 3.416.372 3.416 3.687 5.125.364 1.66.7 3.327 1 5l2 1 .438 1.875c.393 2.208.393 2.208 2.062 3.625 1.785 1.785 1.938 3.09 2.5 5.5l2 1a155.915 155.915 0 0 1 2 5l2 3 .438 2.563c.35 2.791.35 2.791 3.562 4.437.364 1.66.7 3.327 1 5l2 1 .438 1.938c.424 2.444.424 2.444 3.562 4.062.362 1.326.697 2.66 1 4l2 1 2 6 2 1c.625 3.063.625 3.063 1 6l5-1-1 2c-.04 2-.043 4 0 6l2 1 .813 2.25c1.458 3.378 3.569 5.197 6.187 7.75 1.375 2.125 1.375 2.125 2 4l-1 3 3 1 1 6 3 1a510.563 510.563 0 0 1 2 7 187.385 187.385 0 0 0 4 6l2 5 2 1 2 6 2 1c.625 2.563.625 2.563 1 5l4 1v7l2 1 2 6 2 1 1 3 1.563 1.438C738 782 738 782 738 786l3 1 1 6 6-1-2 2c-.167 3.083-.167 3.083 0 6l4-1-1 8 3 1a70.134 70.134 0 0 1 1 4l2 1c.625 2.563.625 2.563 1 5h2l1-2h2l-1 9 3 1 .875 3.188c1.016 3.441 1.443 4.46 3.688 6.937 2.467 2.91 2.916 4.229 3.437 7.875l2 1 2 6 2 1c.625 3.063.625 3.063 1 6l5-1-1 2c-.04 2-.043 4 0 6l2 1 .438 2 .562 2 3 1c1.063 2.688 1.063 2.688 2 6l1.125 3.375L792 883h4l-.188 3.375L796 890l3 2c1.063 2.375 1.063 2.375 2 5 1.09 2.645 1.688 3.783 4.063 5.438 2.554 2.06 2.428 3.363 2.937 6.562 1.475 4.805 1.475 4.805 5 8l.813 2.625c1.235 3.512 2.785 5.78 5.066 8.664 1.239 1.89 1.61 3.527 2.121 5.711l1.5 1.5c1.785 1.785 1.938 3.09 2.5 5.5l2 1 2 6 2 1c.625 3.063.625 3.063 1 6l4-1v8l2 1 1 3 1.5 1.5c1.5 1.5 1.5 1.5 2.5 4.5l2.063 1.375C847 975 847 975 847.25 977.688L847 980l2 1c.678 2.33 1.344 4.664 2 7l2 2 .5 2.063.5 1.937 2 1 .438 1.875c.393 2.208.393 2.208 2.062 3.625 1.785 1.785 1.938 3.09 2.5 5.5l2 1 2 6 2 1 .438 2.938L868 1020l3 2a305.65 305.65 0 0 1 2 5c1.246 2.078 2.55 4.107 3.879 6.133C878 1035 878 1035 879 1038l2 1c.625 3.063.625 3.063 1 6l3 1 .313 2.813c.71 3.296 1.195 4.11 3.687 6.187l1 2c2.025.652 2.025.652 4 1l-.688 2.813c-.685 3.134-.685 3.134 1.063 4.874L896 1067l1 3 2 1c.625 3.063.625 3.063 1 6h1l1-848h167c2.925 3.9 3.475 5.383 4 10l4-1-.125 2.375c-.162 2.786-.162 2.786 2.125 4.625.707 1.65 1.38 3.316 2 5l4-2-1 9 3 2c.364 1.66.7 3.327 1 5l2 1 1 3 3 1 .375 2.938L1095 275l2 1c1.6 3.4 2.895 6.66 4 10.25 1.015 2.79 1.918 3.758 4 5.75.352 1.329.688 2.662 1 4l2 1c.625 2.063.625 2.063 1 4l4 1v5l2 1 2 7 2 1c.625 2.563.625 2.563 1 5l3 1 .375 2.938L1124 328l2 1 .688 2.063c1.66 3.718 4.105 6.095 6.949 8.972 1.363 1.965 1.363 1.965 1.07 4.211L1134 346l3 2c.688 3.125.688 3.125 1 6l3 1 .375 2.938L1142 361l2 1a206.38 206.38 0 0 1 2 5c1.841 3.664 1.841 3.664 5 6 .625 3.063.625 3.063 1 6l3 1 .313 2.813c.734 3.407 1.198 3.985 3.687 6.187 2.826 3.912 3.532 7.223 4 12l3 1 1 3 2 1 2 6 2 1c.625 3.063.625 3.063 1 6l3 1c.684 1.325 1.35 2.659 2 4l3 2-1 1c-.333 2.458-.333 2.458 0 5l3 2c2.303 3.277 3.434 6.04 4 10l5-2 .113 1.758c.429 5.094 1.29 8.748 3.887 13.242l1.5 3.188c1.305 2.774 1.305 2.774 3.125 4.437 1.748 1.748 1.893 2.965 2.375 5.375.804 3.163.804 3.163 2 6l3 1 1 6 3 1c.741 2.31 1.402 4.648 2 7 1.356 3.345 1.85 3.9 5 6l1 5 3 2c.364 1.66.7 3.327 1 5l2 1c.625 3.063.625 3.063 1 6l3 1 .375 2.938L1232 523l2 1 2 4 2 1 1 5 2 1 .438 2.938L1242 541l3 2 .938 2.375c1.2 2.964 2.706 4.505 5.062 6.625l-1 3 2 1 .438 1.875c.393 2.208.393 2.208 2.062 3.625 1.785 1.785 1.938 3.09 2.5 5.5l2 1 .938 2.875c.796 3.099.796 3.099 2.687 4.75L1264 577v4l3 2c.364 1.66.7 3.327 1 5l2 1 1 3a99.693 99.693 0 0 0 3 3c4.92 5.263 4.92 5.263 5.313 8.875L1279 606l2 1 .438 2.875c.61 3.391 1.147 3.912 3.562 6.125.352 1.329.688 2.662 1 4l2 1 .438 1.875c.668 2.524 1.708 3.349 3.562 5.125l1 3 2 1c.625 3.063.625 3.063 1 6l3 1 .313 2.875c.372 3.416.372 3.416 3.687 5.125 1.063 2.313 1.063 2.313 2 5 1.255 3.607 1.255 3.607 3.563 6.563 1.74 1.74 1.888 3.085 2.437 5.437l2 1 2 6 2 1c.625 3.063.625 3.063 1 6l3 1c1.063 2.813 1.063 2.813 2 6 .988 2.305 1.752 3.762 3.563 5.5 1.71 1.784 1.886 3.137 2.437 5.5l2 1c.625 3.063.625 3.063 1 6l3 1 .313 2.875c.372 3.416.372 3.416 3.687 5.125.364 1.66.7 3.327 1 5l2 1a78.558 78.558 0 0 1 2.5 4.438c1.372 2.605 2.409 4.47 4.5 6.562l2 6 2 2 2 6 2 2 .5 2.563.5 2.437 2 1 1 3 5-1-1.125 1.75c-1.167 2.25-1.167 2.25 0 4.5L1366 761l3-2v3l-1 1a99.984 99.984 0 0 0 0 5l3 1 1 6 3 1 1 6 4-2-1 7 4 1v5l2 1 2 6 2 1 2 7 2 1c1.78 2.562 2.914 4.546 3.5 7.625.585 2.78 1.499 3.457 3.5 5.375l.438 2.063c.387 2.149.387 2.149 2.624 3.187l1.938.75v5l2 1c.625 3.063.625 3.063 1 6l3 1c1.063 2.813 1.063 2.813 2 6 1.283 2.993 2.67 4.757 5 7 4.92 5.263 4.92 5.263 5.313 8.875L1423 865l2 1c.707 1.65 1.366 3.32 2 5 1.283 3.234 1.283 3.234 3 6 2.077.96 2.077.96 4 1l-1 6h4l-.125 2.875c-.225 3.227-.225 3.227 2.125 5.125.625 2.625.625 2.625 1 5l3 1 .875 3.188c.885 3.927.885 3.927 3.625 6.812 2.782 3.338 3.44 5.837 4.5 10 1.808 3.695 1.808 3.695 5 6l2 6 2 1a206.38 206.38 0 0 1 2 5c1.857 3.63 3.137 5.535 7 7l-1 5 3 2c.688 2.625.688 2.625 1 5l3 1 .375 2.938L1477 962l2 1c.68 1.996 1.346 3.996 2 6l2 2 .5 2.063.5 1.937 2 1 .438 2.375c.636 2.97 1.44 3.59 3.562 5.625.352 1.329.688 2.662 1 4l2 1 2 6 2 1c2.912 4.644 5.48 9.413 7.188 14.625L1505 1013l3 1 .375 2.938.625 3.062 2 1 2 6 2 1 .813 2.625c1.235 3.512 2.785 5.78 5.066 8.664 1.24 1.892 1.58 3.533 2.121 5.711l2.063 2.063L1527 1049v3l2 1 2 6 2 1 .438 2.938.562 3.062 3 2 1 3h3l1-839h171l1 3 3 1c1.098 2.031 1.098 2.031 2.063 4.5 1.164 3.46 1.164 3.46 3.937 5.5.73 2.314 1.401 4.648 2 7l5-1v2l-2 1c.344 2.473.344 2.473 1 5l2 1c.625 3.063.625 3.063 1 6l3 1a70.134 70.134 0 0 1 1 4l2 1 2 6 2 1 1 5 2 1a131.798 131.798 0 0 1 3 7l1.188 2.938L1750 298h5l-1 7 4 1-1 5 5-1-1 2c-.04 2-.043 4 0 6l2 1 2 6 2 1 .438 1.938c.424 2.444.424 2.444 3.562 4.062.688 2.625.688 2.625 1 5l3 1-.188 2.375L1775 343l3 2c.364 1.66.7 3.327 1 5l2 1 2 6 2 1 .438 1.875c.382 2.192.382 2.192 2 3.5 2.18 2.267 2.665 4.636 3.562 7.625.85 2.753.85 2.753 2 5l3 1 .25 2.875c.4 3.23.4 3.23 2.813 4.5L1801 385v5l2 1c.681 1.66 1.347 3.328 2 5l2 2a252.656 252.656 0 0 1 2 6c1.076 2.768 1.541 3.73 4.125 5.25l1.875.75v5l2 1 2 6 2 1c.625 3.063.625 3.063 1 6l3 1a70.134 70.134 0 0 1 1 4l2 1 .375 2.938L1829 441a89.47 89.47 0 0 0 4 2c.563 2.188.563 2.188 1 5 1.475 4.805 1.475 4.805 5 8l1 3 1.5 1.438c1.5 1.562 1.5 1.562 1.938 3.625.387 2.149.387 2.149 2.624 3.187l1.938.75-1 5 3 1 1 6 4-1-.563 2.313c-.665 2.777-.665 2.777.563 5.687l2 1c3.4 5.424 6.024 10.92 8 17a101.46 101.46 0 0 0 3 3c.352 1.329.688 2.662 1 4l2 1 2 6 2 1 2 4 1.625 1.5C1880 527 1880 527 1880 531l5 2-2 4 2 1.75c2 2.25 2 2.25 2 6.25l2 1 2 6 2 1 .438 1.938c.424 2.444.424 2.444 3.562 4.062l.438 2c.375 2.207.375 2.207 2.624 3.25l1.938.75-1 5 3 1 .313 2.875c.372 3.416.372 3.416 3.687 5.125.364 1.66.7 3.327 1 5l2 1 .438 1.938c.424 2.444.424 2.444 3.562 4.062.688 2.125.688 2.125 1 4l4-1-1 8 3 2a168.693 168.693 0 0 1 2 6l2 2 .5 2.563.5 2.437 2 1a206.38 206.38 0 0 1 2 5c1.841 3.664 1.841 3.664 5 6l.313 2.938L1937 635c2.463 1.453 2.463 1.453 5 2l-1 5 3 2c.364 1.66.7 3.327 1 5l2 1 .438 2 .562 2 3 1 .375 2.438L1952 660l2 1 .438 2.938L1955 667l3 2c.364 1.66.7 3.327 1 5l2 1 2 6 2 1 .438 2.938L1966 688l3 2 1 3 2 1 2 6 2 1c.625 3.063.625 3.063 1 6l4-1v8l2 1 1 3 2 1 2 6 2 1c.625 3.063.625 3.063 1 6l3 1 .375 2.938L1995 739l2 1 2 6 2 1 .438 1.875c.39 2.193.39 2.193 2 3.563 2.58 2.58 3.34 5.91 4.5 9.312L2009 764l3 1 .375 2.938L2013 771l2 1 2 7 2 1 1 3c2.504 1.219 2.504 1.219 5 2l-1 5 4 2-1 5 3 1 .313 2.813c.727 3.371 1.217 4.013 3.687 6.187 1.188 2.188 1.188 2.188 2 4l3-1-1 7 3 2 1 3 2 1 2 6 2 1 .438 2.875c.609 3.384 1.097 3.956 3.562 6.125 1.188 2.188 1.188 2.188 2 4l3-2-1 7 1.938 1.25c2.272 1.928 2.664 2.864 3.062 5.75h1l.875 3.438L2064 862l2 1 .438 2.875c.595 3.31 1.075 4.053 3.562 6.125l1 2 3 2v4a101.46 101.46 0 0 0 3 3c1.246 2.712 2.11 5.38 2.938 8.25L2081 894l3 1 .313 2.813c.726 3.37 1.166 4.054 3.687 6.187 2.246 2.678 3.189 4.64 4 8l2 1 2 7 2 1 .375 2.438c.35 2.722.35 2.722 2.688 3.875L2103 928v5l2 1a78.162 78.162 0 0 1 2.313 4.25c1.588 2.993 3.027 5.31 5.562 7.563L2115 948c-.188 2.313-.188 2.313-1 4l2 1 .375 2.938c.274 3.178.274 3.178 2.688 4.437L2121 961l-.188 2.313c-.077 2.682-.077 2.682 1.5 4.25L2124 969c1.709 2.038 2.87 3.465 3.5 6.063.353 2.044.353 2.044 2 3.437 1.5 1.5 1.5 1.5 1.938 3.438.77 2.827 2.424 4.131 4.562 6.062l-1 3 3 1 .375 2.938L2139 998l2 1c1.682 2.523 2.969 4.919 4.063 7.75.717 2.412.717 2.412 2.937 3.25 2.412 4.22 3.787 8.334 5 13h4l-.293 6.055.293 1.945 3 2c.364 1.66.7 3.327 1 5l2 1 1 3 1.5 1.438c1.5 1.562 1.5 1.562 1.938 3.624.387 2.15.387 2.15 2.624 3.188l1.938.75-1 5 3 1 .375 2.938.625 3.062 2 1c1.677 2.515 2.94 4.829 3.938 7.688.875 2.467.875 2.467 3.187 3.624l1.875.688v5l2 1c.625 3.063.625 3.063 1 6l3 1 .375 2.938.625 3.062 2 1c.702 1.67 1.4 3.342 2.074 5.023 1.28 2.734 3.002 5.015 4.84 7.399C2203 1110 2203 1110 2204 1113l2 1c.407 2.322.744 4.657 1 7l4 1v6l3 1c1.843 2.551 2.91 4.524 3.5 7.625.585 2.78 1.499 3.457 3.5 5.375.352 1.329.688 2.662 1 4l2 1c.625 3.063.625 3.063 1 6l3 1 1 6 3 1a89.261 89.261 0 0 1 2 4l1.625 1.5c1.375 1.5 1.375 1.5 1.375 5.5 1.034 1.759 1.034 1.759 2.438 3.375 2.408 3.15 3.268 5.605 3.562 9.625l3 1 .375 2.938.625 3.062 2 1c1.296 2.212 2.43 4.485 3.586 6.773 1.301 2.345 1.301 2.345 3.582 3.829L2258 1205l-.063 3 .063 3c2.39 1.935 2.39 1.935 5 3l-2 4 2 1v4l-5 2 1 4-2.313-.688L2254 1228c-1.542 1.375-1.542 1.375-3 3a176.3 176.3 0 0 1-5 1l-1 2-6 2-1 2c-3.063.625-3.063.625-6 1l-1 3-2.938.375-3.062.625-1 2-3 1-1.438 1.5c-1.827 1.755-3.142 1.935-5.562 2.5l-1 2-6 2-1 2-2.938.438-3.062.562-2 3c-1.66.364-3.327.7-5 1l-1 2h-9l-.375-2.938L2182 1257l-2-1-.375-2.438c-.35-2.722-.35-2.722-2.688-3.874L2175 1249v-3l-1.438-1.438c-1.83-1.83-1.987-3.096-2.562-5.562l-2-1c-.625-3.063-.625-3.063-1-6l-5 1 1-8-2-1-.438-1.875c-.677-2.56-1.673-3.31-3.562-5.125-1.671-2.54-2.966-4.911-4.063-7.75-.717-2.412-.717-2.412-2.937-3.25a108.817 108.817 0 0 1-1-7l-3-1-.188-2.688c-1.005-4.097-2.834-5.406-5.812-8.312a167.903 167.903 0 0 1-2-6l-3-2c-.364-1.66-.7-3.327-1-5l-2-1-.813-2.063c-1.046-2.587-2.185-4.607-3.687-6.937-1.882-2.925-3.256-5.745-4.5-9l-2-2-.5-2.063-.5-1.937-2-1c-1.624-3.45-2.916-6.718-4-10.375l-1-2.625-3-1c-1-2.063-1-2.063-2-5-2.326-6.841-2.326-6.841-6-13a312.212 312.212 0 0 0-5-2c-2.313-2.625-2.313-2.625-4-5l2-1v-6l-3-1c-1.185-2.51-2.016-5.05-2.875-7.688-.885-2.459-.885-2.459-3.063-3.144-2.806-1.589-3.147-3.163-4.187-6.168-1.327-3.87-1.327-3.87-3.875-7l-1-3.563-1-3.437-2-1-1-6-2-1c-3.066-4.665-5.462-9.65-7.563-14.813-1.069-3.266-1.069-3.266-3.437-4.187-.625-3.063-.625-3.063-1-6l-3-1c-1.168-2.066-1.168-2.066-2.188-4.563l-1.042-2.503-.77-1.934h-4v-8l-2-1a158.623 158.623 0 0 1-3-5l-1-1a235.648 235.648 0 0 1-1-7l-3-1-.25-2.875L2038 998l-1.938-.906C2034 996 2034 996 2032.954 993.836l-.703-2.461-.734-2.477L2031 987h-2l-2 4c-.1-3.492.222-6.594 1-10l-3-2-.438-2.875c-.683-3.796-1.847-4.488-4.562-7.125-1.123-2.028-2.108-4.087-3.07-6.195-.907-1.985-.907-1.985-2.93-3.805l-.5-2.063-.5-1.937-2-1-.938-3.438c-.718-3.794-.718-3.794-4.062-5.562-.188-2.625-.188-2.625 0-5l-3-1c-1.063-2.25-1.063-2.25-2-5-1.255-3.607-1.255-3.607-3.563-6.563-1.754-1.754-1.845-3.067-2.437-5.437-1.64-2.135-2.515-2.918-5.2-3.373l-2.62.004-3.027-.018-3.333.026-3.535-.008c-3.243-.004-6.485.006-9.728.02-3.495.014-6.99.01-10.485.007-6.056-.001-12.113.008-18.17.025-8.757.024-17.514.032-26.272.036-14.207.006-28.414.026-42.621.055-13.803.027-27.606.048-41.409.061l-2.577.003-12.8.011c-35.408.031-70.815.084-106.223.151l-.005 2.134a437229.517 437229.517 0 0 1-.367 140.084l-.009 3.017c-.044 16.143-.084 32.286-.124 48.429-.04 16.551-.084 33.103-.132 49.654-.03 10.222-.056 20.443-.078 30.665-.016 7-.035 13.999-.058 20.998-.012 4.045-.024 8.09-.03 12.134-.007 3.696-.018 7.393-.032 11.09-.007 1.983-.008 3.967-.01 5.95l-.016 3.521-.008 3.065C1706 1252 1706 1252 1705 1253c-1.906.104-3.816.138-5.725.145l-3.77.02-4.173.009-4.365.02c-3.14.015-6.28.026-9.42.036-4.962.015-9.924.04-14.885.065-14.111.071-28.222.13-42.334.182-7.788.028-15.576.063-23.364.106-4.936.027-9.872.045-14.808.056-3.067.01-6.134.027-9.2.047-1.427.007-2.853.011-4.28.012-1.94 0-3.882.015-5.824.03l-3.297.013c-2.721.004-2.721.004-4.555 2.259-2.323.4-4.657.74-7 1l-1 3h-7l-1.375-2.875c-1.427-3.128-1.427-3.128-3.625-5.125l-.25-2.875c-.439-3.413-.439-3.413-3.75-5.063-3-2.062-3-2.062-3.75-5.75L1527 1235l-2-1c-.625-3.063-.625-3.063-1-6l-3-1-.313-2.875c-.372-3.416-.372-3.416-3.687-5.125-1.84-2.618-2.92-4.514-3.438-7.688-.324-2.495-.324-2.495-2.624-3.624L1509 1207v-4l-2-1-2-6-2-1-.438-2.938L1502 1189l-3-2-.438-2.375c-.331-2.739-.331-2.739-2.437-4.438-2.564-2.638-3.323-5.021-4.414-8.48-.579-1.913-.579-1.913-2.711-2.707l-2-6-2-1c-.625-3.063-.625-3.063-1-6l-5 1 1-2c.04-2 .043-4 0-6l-2-1-1-3-1.438-1.438c-1.716-1.716-2.575-3.36-3.562-5.562l-3 3c0-4 0-4 1-5 .04-1.666.043-3.334 0-5l-3-1-.313-2.875c-.372-3.416-.372-3.416-3.687-5.125a103.73 103.73 0 0 1-2-5c-1.369-2.5-2.568-4.585-4.625-6.563-1.707-1.784-1.828-3.043-2.375-5.437-1.661-4.258-1.661-4.258-5-7l-.438-2.875c-.608-3.381-1.047-3.997-3.562-6.125-1.985-2.29-2.928-3.62-3.5-6.625-.287-2.739-.287-2.739-3.5-4.375-.364-1.66-.7-3.327-1-5l-2-1-2-6-2-1-.813-2.688c-1.035-3.489-1.035-3.489-3.75-6.374-2.48-2.99-2.84-4.259-3.437-7.938-.979-1.021-1.98-2.02-3-3a103.73 103.73 0 0 1-2-5c-1.844-4.339-1.844-4.339-5.125-7.563-2.52-1.931-2.304-3.366-2.875-6.437l-2-3c-1.948-2.921-2.35-4.655-3-8l-3-2c-.364-1.66-.7-3.327-1-5l-2-1-2-6-2-1-.313-2.75c-.876-4.144-2.622-5.399-5.687-8.25l-4-6-3-2 1-5-2-1c-.625-3.063-.625-3.063-1-6l-3-1-1-6-3-1c-1.063-2.25-1.063-2.25-2-5-1.444-4.236-1.444-4.236-5-7-.364-1.66-.7-3.327-1-5l-2-1-2-6-2-1-.813-2.563c-1.252-3.626-2.93-6.351-5.066-9.507-1.121-1.93-1.121-1.93-1.586-4.047-.428-2.28-.428-2.28-3.535-3.883-.364-1.66-.7-3.327-1-5l-2-1c-.625-3.063-.625-3.063-1-6h-4l-.375-3.438L1339 897l-2-1c-1.092-2.546-1.985-5.137-2.902-7.75L1333 886l-3-1-1-6-4 1 1-8-3-1-.188-2.688c-1.008-4.112-2.817-5.388-5.812-8.312a126.27 126.27 0 0 1-3-7c-1.838-3.68-1.838-3.68-5-6a771.494 771.494 0 0 1-2-7l-2-2a89.901 89.901 0 0 1-1-6l-3-1-2-3-3 2 1-9h-2l-1 2h-2l1-9-3-1-1-6-3 1v-8l-4 1v-6l-4-1 1-5-3-2c-.364-1.66-.7-3.327-1-5l-2-1-2-6-2-1-.438-2-.562-2-3-1-1-6-7-2v-2h4v-3l-3-1-.313-2.875c-.372-3.416-.372-3.416-3.687-5.125-.364-1.66-.7-3.327-1-5l-2-1c-1.374-2.536-2.563-5.136-3.781-7.75-1.015-2.387-1.015-2.387-3.219-3.25l-.875-2.25c-1.024-2.897-1.024-2.897-3.313-5.375L1238 720l1-3-2-1c-1.374-2.536-2.563-5.136-3.781-7.75-1.015-2.387-1.015-2.387-3.219-3.25-1.593-3.386-2.882-6.598-3.938-10.188-1.18-3.126-2.692-4.521-5.062-6.812v-3l-2-1a502.64 502.64 0 0 1-2-6c-1.32-2.467-2.521-4.521-4.5-6.5-3.685-3.685-4.907-7.398-5.5-12.5l-3-1-.375-2.938L1203 652l-2-1c-1.756-2.672-3.16-5.345-4.5-8.25-1.257-3.048-1.257-3.048-4.5-3.75v-5l-2-1c-.625-3.063-.625-3.063-1-6l-3-1-1-6-4 1 .688-2.25c.615-2.777.615-2.777-1.063-4.813L1179 612l-.5-2.063c-.627-2.43-1.706-3.212-3.5-4.937-1.795-2.623-2.916-4.55-3.5-7.688-.299-2.68-.299-2.68-3.5-4.312a179.988 179.988 0 0 1-1-6l-2-1c-1.74-2.648-3.168-5.342-4.563-8.188-1.28-2.86-1.28-2.86-3.437-4.812l-.5-2.063-.5-1.937-2-1c-.625-3.063-.625-3.063-1-6l-3-1-.375-2.938L1149 555l-2-1-2-6-2-1-.438-2-.562-2-3-1c-1.063-2.688-1.063-2.688-2-6-1.256-4.856-1.256-4.856-5-8-.364-1.66-.7-3.327-1-5l-2-1-.875-3-1.125-3c-2.032-.969-2.032-.969-4-1l.688-1.813L1124 511c-1.375-1.542-1.375-1.542-3-3a139.595 139.595 0 0 1-1-4l-2-1c-.625-3.063-.625-3.063-1-6l-3-1-.375-2.938L1113 490l-2-1c-2.976-4.528-5.255-9.42-7.563-14.313-1.158-2.788-1.158-2.788-3.437-3.687l-.688-2.063c-1.66-3.718-4.105-6.095-6.949-8.972C1091 458 1091 458 1091.38 455.844L1092 454a101.46 101.46 0 0 0-3-3l-.5-2.563c-.276-2.796-.276-2.796-3.5-4.437-1-2.188-1-2.188-2-5-1.527-4.785-1.527-4.785-5-8l-1-4-2-1a505.801 505.801 0 0 1-2-6l-2-2-.375-1.938c-.832-2.745-2.324-3.453-4.625-5.062v837c-1.625 1.625-3.575 1.317-5.813 1.5-2.572.213-4.95.438-7.449 1.094L1051 1251l-1-1c-1.843-.1-3.69-.13-5.536-.134l-3.641-.013-4.032.002a5346.44 5346.44 0 0 0-15.703-.022c-3.19-.001-6.381-.005-9.572-.008-7.526-.009-15.052-.011-22.578-.01-7.775 0-15.55-.01-23.324-.026-6.665-.013-13.33-.018-19.995-.018-3.985 0-7.97-.002-11.955-.013-3.747-.01-7.494-.01-11.24-.003-1.379.002-2.756 0-4.134-.007a743.423 743.423 0 0 0-5.627.005l-3.186-.002c-2.653.003-2.653.003-4.477 2.249-2.383.195-2.383.195-5.125.125l-2.758-.055L895 1252l-1-6-3-1-.188-2.688c-1.005-4.097-2.834-5.406-5.812-8.312a167.903 167.903 0 0 1-2-6l-3-2-1-5-3-2c-.364-1.66-.7-3.327-1-5l-2-1c-.625-3.063-.625-3.063-1-6l-3-1-2-3-3 1 1-8-5 1 1-8-3-1-.375-3.438L857 1181l-2-1c-.625-3.063-.625-3.063-1-6h-2l-2 2v-6c-1.94-1.705-1.94-1.705-4-3l1-4-3-1-.375-2.938L843 1156l-2-1a133.101 133.101 0 0 1-3-6c-2.027-4.334-2.027-4.334-5-8l-.5-2.063-.5-1.937-2-1-.313-2.375c-.45-2.87-.45-2.87-3.25-4.438L824 1128l1-4-2-1-.75-2.5c-1.429-4-3.473-7-5.91-10.45C815 1108 815 1108 814 1105l-2-1a197.417 197.417 0 0 1-3-5l-1.75-2.063c-1.25-1.937-1.25-1.937-.938-4.187L807 1091l-2-1c-1.3-2.508-2.435-5.072-3.586-7.652-1.559-2.588-2.627-3.31-5.414-4.348v-5l-4-2 1-5-3-1-.375-2.938L789 1059l-2-1-2-6-2-1c-2.963-4.77-5.586-9.79-7.688-15-1.222-2.795-2.178-3.963-4.312-6l-.434-1.863c-.626-2.364-1.524-3.706-3.004-5.637-1.812-2.43-3.206-4.789-4.562-7.5l-1.625-1.5C760 1012 760 1012 760 1008l-2-1c-.625-3.063-.625-3.063-1-6l-3-1-.375-2.938L753 994l-2-1c-1.74-2.648-3.168-5.342-4.563-8.188-1.28-2.86-1.28-2.86-3.437-4.812l-.5-2.063L742 976l-2-1c-.625-3.063-.625-3.063-1-6l-3-1-.375-2.938L735 962l-2-1c-3.81-6.118-3.81-6.118-4.5-9.313-.363-1.92-.363-1.92-2.563-2.937L724 948v-4l-2-1c-.625-3.063-.625-3.063-1-6l-3-1-.313-3.313c-.735-3.943-1.04-4.131-3.687-6.687-1.051-2.018-1.94-4.07-2.84-6.16-1.412-2.24-2.739-2.865-5.16-3.84v-5l-2-1-.438-2.938L703 904l-3-2c-.364-1.66-.7-3.327-1-5l-2-1-2-6-2-1c-3.408-5.436-5.975-10.926-8-17l-3-2c-.364-1.66-.7-3.327-1-5l-2-1a312.212 312.212 0 0 1-2-5l-2-2-.438-1.938c-.403-2.151-.403-2.151-2.062-3.562-1.785-1.785-1.938-3.09-2.5-5.5l-2-1-.813-2.25c-1.468-3.402-3.485-5.246-6.187-7.75l-3-3 2-4-1.438-1.25C657 825 657 825 656.625 822.937L656 821c-2.49-1.297-2.49-1.297-5-2l1-5-2-1-.438-2.938L649 807l-3-2c-.688-2.625-.688-2.625-1-5l-4-1v-4c-1.19-2.505-1.19-2.505-2.813-5l-1.582-2.563c-1.551-2.43-1.551-2.43-3.273-4.554C632 781 632 781 631.5 777.875L631 775l-3-2a89.47 89.47 0 0 1-2-4l-2-2-.5-2.563L623 762l-2-1-.438-2.438c-.327-2.906-.327-2.906-3.562-4.562-.364-1.66-.7-3.327-1-5l-2-1c-.625-3.063-.625-3.063-1-6l-3-1c-1.063-2.25-1.063-2.25-2-5-1.255-3.607-1.255-3.607-3.563-6.563-1.74-1.74-1.888-3.085-2.437-5.437l-2-1-2-6-2-1-.438-2.938L595 710l-3-2c-1.246-2.023-1.246-2.023-2.438-4.375-1.499-2.848-2.606-4.667-4.937-6.938L583 695c.25-2.25.25-2.25 1-4l-3-1-.375-2.938L580 684l-2-1c-.625-3.063-.625-3.063-1-6l-3-1c-1.063-2.25-1.063-2.25-2-5-1.237-3.464-2.304-5.52-5-8-2.327-2.606-3.063-4.233-4-7.688L562 652l-3-1c-1-3-1-3 0-6l-3-1c-1-2.188-1-2.188-2-5-1.679-4.255-1.679-4.255-5-7-.625-2.563-.625-2.563-1-5l-4 1 .563-2.313c.665-2.777.665-2.777-.563-5.687l-2-1-.438-2.938L541 613l-3-2a305.65 305.65 0 0 1-2-5c-1.212-2.046-2.486-4.041-3.781-6.035C531 598 531 598 529.969 595.816c-.838-1.991-.838-1.991-2.969-2.816l-1-6-2-1-.938-2.875c-.78-3.065-.78-3.065-2.535-4.57-2.196-2.236-2.749-4.68-3.683-7.617-.948-2.177-2.146-3.31-3.844-4.938a139.595 139.595 0 0 1-1-4l-2-1-.938-3-1.062-3-3-1c-1-3-1-3 0-6l-3-2a93.365 93.365 0 0 1-1-4l-2-1a312.212 312.212 0 0 1-2-5l-2-2-.813-2.25c-1.102-2.963-1.102-2.963-3.75-5.563-3.102-3.495-3.2-6.608-3.437-11.187l-3-1c-1.316-2.25-1.316-2.25-2.563-5-1.46-3.71-1.46-3.71-4.437-6-.625-3.063-.625-3.063-1-6l-3-1c-1.063-2.398-1.063-2.398-2-5.375-1.182-3.733-2.09-6.006-5-8.625-1.129-2.523-2.027-5.078-2.938-7.688-.96-2.623-.96-2.623-4.062-4.312-1-2.188-1-2.188-2-5-1.527-4.785-1.527-4.785-5-8a312.212 312.212 0 0 1-2-5l-2-2a206.38 206.38 0 0 1-2-5c-2.014-4.339-2.014-4.339-5-8-.707-1.65-1.366-3.32-2-5-1.529-4.784-1.529-4.784-5-8a61.184 61.184 0 0 1-4.063-7.25c-.817-1.93-.817-1.93-2.937-2.75l-.375-3.438L426 407c-1.936-1.513-1.936-1.513-4-2v-5l-2-1a101.168 101.168 0 0 1-2-6h-3v2.246c.017 80.64.033 161.282.042 241.922v3.648a4545181.834 4545181.834 0 0 1 .013 120.81c.005 41.407.012 82.813.021 124.22a734268.774 734268.774 0 0 1 .019 145.6v3.58c.001 19.05.006 38.1.012 57.15.006 19.129.008 38.257.007 57.386-.001 11.38 0 22.76.007 34.139.004 7.588.004 15.175 0 22.763 0 4.332 0 8.665.004 12.997.004 3.933.003 7.866 0 11.8-.002 1.421 0 2.843.002 4.264.004 1.917 0 3.834-.003 5.75v3.23C415 1247 415 1247 414 1249H250V229l159-1 3-3c1.329-.352 2.662-.688 4-1l1-2zm1292 189c-2.253 1.83-2.253 1.83-2.248 4.525l.002 3.265-.012 3.76.017 4.168a3383.545 3383.545 0 0 0 .008 16.527c.01 4.354.007 8.709.005 13.063-.001 7.55.005 15.099.017 22.648.016 10.915.021 21.83.024 32.745.004 17.708.017 35.415.036 53.122.018 17.205.033 34.41.041 51.615l.002 3.211.007 15.95c.021 44.134.056 88.268.101 132.401 24.443.047 48.886.082 73.33.104 11.348.01 22.697.024 34.046.047 9.89.02 19.78.033 29.67.037 5.238.003 10.476.009 15.714.023 4.928.014 9.856.018 14.784.015 1.81 0 3.622.005 5.433.012 2.468.01 4.936.008 7.405.003l2.181.017c3.647-.022 6.336-.254 9.437-2.258l1 2h9l-3-2c-3.196-2.543-5.727-4.59-8-8h-2l3-3 1 3h2l-1-5h-3l-.313-2.125c-.78-3.266-2.108-5.922-3.687-8.875h-3v-7l-3-1c-1.927-3.238-3.042-6.161-4-9.813l-1-3.187-3-1v-4c-.979-1.021-1.98-2.02-3-3-.688-2.188-.688-2.188-1-4l-5-1-1-4h-2l1-2c.04-2.333.043-4.667 0-7h-3l-1-6h-3l.188-2.813c.135-3.15.135-3.15-1.626-4.875L1859 680l-1-3-2-1c-.625-3.063-.625-3.063-1-6l-3-1-1-6h-3l-.188-3.188c-1.19-5.59-4.195-7.734-8.812-10.812l1-4-4-2 1-5-3-1-.313-2.875c-.372-3.416-.372-3.416-3.687-5.125-1.188-3.125-1.188-3.125-2-6h-2l-.375-2.375c-.416-2.766-.416-2.766-2.625-4.625l-.5-2.063-.5-1.937-2-1c-.625-3.063-.625-3.063-1-6l-3-1-1-6h-4l.625-2.375L1812 593l-2-2-4 2 1-1.813c1.208-2.24 1.208-2.24 1-5.187l-3-2a93.365 93.365 0 0 1-1-4l-2-1c-.625-3.063-.625-3.063-1-6l-6-2 2-5-1.438-1.25c-1.741-1.95-1.98-3.255-2.562-5.75l-2-1c-.625-2.063-.625-2.063-1-4h-2l-2 3-1-3h2a108.817 108.817 0 0 0-1-7l-2-1-.438-2.438c-.327-2.906-.327-2.906-3.562-4.562l-1-4-3-2c-.688-3.125-.688-3.125-1-6l-3-1v-4h-2l-2 2 .688-2.188c.403-3.627-.766-4.781-2.688-7.812-.688-3.313-.688-3.313-1-6l-3-1-1-6h-3v-4l-5-1 1-7-3-2-.938-2.563L1749 482c-2.041-.887-2.041-.887-4-1l2-5-4-1v-6h-3l-.375-2.875c-.342-3.212-.342-3.212-2.625-5.125-.625-2.125-.625-2.125-1-4h-3l-.375-3.438L1732 450l-2-1c-.625-3.063-.625-3.063-1-6h-4v-6l-3-1-.375-2.375c-.416-2.766-.416-2.766-2.625-4.625l-1-2.563c-.749-2.585-.749-2.585-3-3.437l-1-5-2-1c-.625-3.063-.625-3.063-1-6h-2z" fill="#FFF"/><path d="m64.509 25.874 2.064-.004c2.31-.004 4.622 0 6.933.004l5.014-.005c4.64-.004 9.28-.002 13.92.001 5.05.002 10.099-.001 15.148-.004 8.9-.004 17.798-.004 26.697-.002 13.322.003 26.645 0 39.967-.004 22.7-.006 45.4-.007 68.1-.006a330636.733 330636.733 0 0 0 91.186-.007l49.993-.008h2.315c43.47-.005 86.94-.006 130.411-.006a17577483.824 17577483.824 0 0 0 24.938 0c37.36 0 74.721-.003 112.082-.005l25.002-.002h2.507a62516596.614 62516596.614 0 0 1 142.53-.009 3131901.343 3131901.343 0 0 1 256.904-.002 2168122.759 2168122.759 0 0 0 340.818-.02l85.879-.011h2.67c55.181-.007 110.362-.01 165.542-.012h2.582a3616182.049 3616182.049 0 0 1 164.878 0c38.194 0 76.388-.002 114.581-.008h2.498l39.783-.006c37.627-.007 75.254-.012 112.88-.01h2.312a744953.163 744953.163 0 0 1 69.819.007h2.193c22.99.003 45.981 0 68.972-.008 23.245-.007 46.49-.007 69.735.001 13.24.004 26.48.003 39.72-.006 8.77-.005 17.542-.004 26.313.004 4.987.004 9.973.005 14.959-.003 4.514-.007 9.029-.005 13.543.005 1.629.002 3.257 0 4.885-.005 2.195-.007 4.39-.002 6.584.007h3.692C2438 26 2438 26 2441 28v2l3.062-.25c4.89.31 6.928 1.523 10.938 4.25l1 2 2.937 1.312C2462 39 2462 39 2463.375 41.687L2464 44h2l1 4h3v3l3 1c1.187 3.562 1.187 3.562 2 7l3-2-.493 1.916c-.684 4.16-.64 8.218-.627 12.428l-.002 2.882c-.001 3.212.004 6.423.01 9.635v6.978c0 5.757.005 11.514.012 17.272.008 6.942.01 13.884.012 20.825.004 12.975.012 25.95.023 38.924.01 13.153.02 26.307.025 39.46l.001 2.515a799865.74 799865.74 0 0 1 .018 38.727v2.649a281051.85 281051.85 0 0 0 .032 54.818 447675.674 447675.674 0 0 1 .073 168.94 229446344.936 229446344.936 0 0 1 .01 29.45 1972882.856 1972882.856 0 0 0 .053 145.535c.019 47.45.04 94.899.07 142.348l.001 3.093.03 49.37c.03 47.394.057 94.787.07 142.18l.002 2.952a645166.676 645166.676 0 0 1 .02 89.972l.001 2.854c.007 30.355.027 60.71.054 91.066a95431.112 95431.112 0 0 1 .04 104.366v2.507c0 13.118.013 26.236.032 39.353.018 12.89.023 25.78.012 38.67-.005 6.9-.004 13.798.015 20.697.017 6.27.015 12.54 0 18.811-.003 2.26 0 4.52.013 6.78.014 3.06.005 6.12-.011 9.182l.03 2.65c-.07 6.167-1.652 10.758-4.526 16.195h-3l-.188 2.687c-1.001 4.085-2.613 5.66-5.812 8.313h-2v4c-3.73 2.034-5.67 3-10 3l-1 4h-7v3c-3.615 1.128-6.993 1.125-10.765 1.125l-2.074.004c-2.31.004-4.621 0-6.932-.004l-5.028.005a8932.6 8932.6 0 0 1-13.929-.003c-5.056-.002-10.112 0-15.168.003-8.908.004-17.816.003-26.723 0-13.336-.004-26.671-.002-40.007 0-22.723.006-45.446.005-68.17.003-23.04-.003-46.08-.004-69.12-.002h-2.2a2694053.477 2694053.477 0 0 0-70.007.006h-2.317a1018020.777 1018020.777 0 0 1-152.998-.003h-2.502c-38.232-.002-76.464-.001-114.696 0h-12.507a24287623.503 24287623.503 0 0 0-152.643.003h-2.586c-55.27 0-110.54 0-165.811-.003h-2.675l-88.69-.004a3792151.452 3792151.452 0 0 0-427.135.004h-2.673l-165.72.003h-2.585a6892227.5 6892227.5 0 0 1-165.066-.003H536.072l-32.386.002h-7.433c-37.664.002-75.328.004-112.992.001h-2.315a1449148.056 1449148.056 0 0 1-69.899-.006h-2.196c-23.012-.002-46.024 0-69.036.002-23.27.003-46.539.002-69.808-.003-13.252-.003-26.504-.002-39.755.002-8.782.002-17.564 0-26.345-.003-4.99-.002-9.981-.003-14.972 0-4.52.004-9.041.003-13.562-.002-1.628-.001-3.256 0-4.884.002-2.2.003-4.4 0-6.599-.004h-3.695A41.232 41.232 0 0 1 52 1458v-3l-9 1 1-5-2.5-.063c-5.34-1.43-8.66-5.096-12.5-8.937a99.984 99.984 0 0 1 0-5h-3v-4l-3-1c-.914-1.777-.914-1.777-1.625-3.938-.712-2.11-1.378-4.068-2.375-6.062a252.503 252.503 0 0 1-.124-8.962l-.004-2.868c-.003-3.213 0-6.427.005-9.64 0-2.32-.002-4.64-.004-6.96-.002-5.755 0-11.509.003-17.263.005-6.936.003-13.872.002-20.808-.003-12.963-.002-25.927.003-38.89a106934.597 106934.597 0 0 0 .005-54.627c-.001-30.625.002-61.25.008-91.875a570494.423 570494.423 0 0 0 .012-119.66l.003-64.131v-2.95a1690055.618 1690055.618 0 0 1 .022-191.484v-3.091a2048117.704 2048117.704 0 0 0 .018-212.587 11042463.615 11042463.615 0 0 1 .009-127.496c.006-86.996.015-173.992.026-260.988v-2.469L19 63l2-1c.907-2.113.907-2.113 1.625-4.563.39-1.239.39-1.239.79-2.503L24 53h2l.375-2.438L27 48l2-1a791.205 791.205 0 0 0 3-5c1.562-1.813 1.562-1.813 3-3h2v-2l3-1 1.5-1.563C43 33 43 33 46 33v-2c2.957-1.478 5.742-1.06 9-1l1-3c2.866-1.433 5.304-1.125 8.509-1.126zM127 133c-1.773 1.773-1.125 4.141-1.133 6.503l.008 2.423-.005 2.565c-.003 2.879 0 5.757.004 8.636 0 2.076-.002 4.152-.004 6.229-.004 5.76-.002 11.52.002 17.281.002 6.246-.001 12.492-.004 18.739-.003 10.965-.003 21.93 0 32.896.002 11.77.003 23.542 0 35.313v2.25l-.001 9.068c-.006 28.185-.006 56.37-.003 84.556v5.07a523645.855 523645.855 0 0 1 .001 102.086l-.002 57.427v2.642a897537.961 897537.961 0 0 0 .007 130.05 1041871.796 1041871.796 0 0 1-.004 218.204v2.732c-.002 27.762-.003 55.525-.003 83.288v2.64a1795397.772 1795397.772 0 0 0 .003 82.992c.001 25.473 0 50.945-.002 76.418v5.063a294752.381 294752.381 0 0 0 .005 93.344v2.24c.002 11.744 0 23.487-.002 35.23-.003 11.528-.002 23.055.003 34.583.002 6.175.003 12.35 0 18.524-.004 5.604-.002 11.208.003 16.811 0 2.028 0 4.055-.003 6.083-.003 2.73 0 5.458.005 8.188l-.008 2.423c-.316 3.546-.316 3.546 1.133 6.503 2.005.099 4.014.125 6.022.125l1.941.004c2.179.004 4.357 0 6.536-.004l4.721.005c4.373.003 8.745 0 13.118-.003 4.756-.002 9.513 0 14.27.003 8.384.004 16.77.003 25.154 0 12.552-.004 25.105-.002 37.657 0 21.387.006 42.775.005 64.162.003 21.689-.003 43.377-.004 65.066-.002h2.07a2385151.922 2385151.922 0 0 1 65.88.006h2.18a901905.887 901905.887 0 0 0 144.016-.003h2.356c35.982-.002 71.965-.001 107.948 0h11.77a21497083.437 21497083.437 0 0 1 146.077.003 3067005.178 3067005.178 0 0 0 242.039-.007 3359392.348 3359392.348 0 0 1 402.025.004h2.517l155.964.003h2.432a6103075.715 6103075.715 0 0 0 155.331-.003H1918.56l30.488.002h6.998c35.452.002 70.905.004 106.357.001h2.177a1282765.062 1282765.062 0 0 0 65.773-.006h2.066c22.325-.002 44.65 0 66.974.002 21.238.003 42.476.002 63.715-.003 12.476-.003 24.951-.002 37.427.002 8.263.002 16.526 0 24.788-.003 4.699-.002 9.398-.003 14.096 0 4.252.004 8.504.003 12.756-.002 1.535-.001 3.07 0 4.606.002 2.066.003 4.131 0 6.197-.004h3.478c2.48.164 2.48.164 3.544-1.125.1-2.65.133-5.275.125-7.926l.005-2.565c.003-2.879 0-5.757-.004-8.636 0-2.076.002-4.152.004-6.229.004-5.76.002-11.52-.002-17.281-.002-6.246.001-12.492.004-18.739.003-10.965.003-21.93 0-32.896-.002-11.77-.003-23.542 0-35.313v-2.25l.001-9.068c.006-28.185.006-56.37.003-84.556v-5.07a523645.855 523645.855 0 0 1-.001-102.086l.002-57.427v-2.642a897537.961 897537.961 0 0 0-.007-130.05 1041871.796 1041871.796 0 0 1 .004-220.936c.002-27.762.003-55.525.003-83.288v-2.64a1795427.159 1795427.159 0 0 0-.003-82.992c-.001-25.473 0-50.945.002-76.418v-5.063a294752.381 294752.381 0 0 0-.005-93.344v-2.24c-.002-11.744 0-23.487.002-35.23.003-11.528.002-23.055-.003-34.583-.002-6.175-.003-12.35 0-18.524.004-5.604.002-11.208-.003-16.811 0-2.028 0-4.055.003-6.083.003-2.73 0-5.458-.005-8.188l.008-2.423c.316-3.546.316-3.546-1.133-6.503a121.71 121.71 0 0 0-5.997-.125l-3.989-.008-4.452.008-4.701-.005c-4.354-.003-8.708 0-13.062.003-4.736.002-9.473 0-14.209-.003-8.35-.004-16.698-.003-25.047 0-12.5.004-24.998.002-37.497 0-21.297-.006-42.594-.005-63.89-.003-21.597.003-43.194.004-64.79.002h-2.062a2364038.852 2364038.852 0 0 1-67.773-.006c-35.352-.003-70.705-.001-106.057 0l-4.648.001h-2.327l-30.376.002h-2.346c-35.832.002-71.665.001-107.497 0h-11.72a21329935.738 21329935.738 0 0 1-143.05-.003h-2.423a3041728.744 3041728.744 0 0 0-241.039.007 3331205.355 3331205.355 0 0 1-400.33-.004h-2.506c-51.77-.002-103.541-.003-155.312-.003h-2.422a6053423.728 6053423.728 0 0 0-154.696.003H584.937l-30.355-.002h-6.968c-35.301-.002-70.603-.004-105.905-.001h-2.169a1272891.577 1272891.577 0 0 0-65.511.006h-2.058c-22.228.002-44.456 0-66.684-.002-21.151-.003-42.303-.002-63.454.003-12.421.003-24.843.002-37.264-.002-8.23-.002-16.46 0-24.691.003-4.678.002-9.356.003-14.034 0-4.236-.004-8.473-.003-12.71.002-1.526.001-3.053 0-4.58-.002-2.06-.003-4.12 0-6.181.004h-3.464c-2.503.108-4.509.5-6.909 1.125-1.671-.31-3.339-.64-5-1z" fill="#FFF"/><path d="m1825 632 3 1c-1.098 2.993-1.677 3.846-4.625 5.25L1821 639v-2l2-1c1.134-2.017 1.134-2.017 2-4zM1857 698l3 1-1 7-2-1v-7zM1724 448l3 1v4h-4l1-5zM1768 530l2 2c-.375 2.125-.375 2.125-1 4l-3-1c.875-3.875.875-3.875 2-5zM1717.063 445.938 1720 446l1 2c-2.606.93-3.642 1.15-6.25.063L1713 447c1-1 1-1 4.063-1.063zM1886 744l3 1-1 3-3-1 1-3zM1850 672l3 1-1 3-3-1 1-3zM1750 499l2 1v4l-3-1 1-4zM1746 487l2 1-1 4-3-2 2-3zM1890 757l3 3-3 2-1-3 1-2zM1771 563l2 1v4l-3-1 1-4zM1739 510l2 1-1 4-2-1 1-4zM1997 939l4 1-1 2h-3v-3zM2102 897h2v5h-2v-5zM1883 733l2 1v3h-3l1-4zM1778 558h2v5h-2v-5zM576 472l2 1v4l-3-1 1-4zM1714 437l2 1v3h-3l1-4zM1439 867h3v3h-3v-3zM1749 510l3 1-1 3-2-1v-3zM1738 485l3 1-1 3-2-1v-3zM1803 381h2v3l-4-1 2-2zM39 1461l3 1v2h-3v-3zM1872 715l2 1-1 3-2-1 1-3zM1787 565h4v2h-4v-2zM1782 550h2v3h-3l1-3zM1739 492l2 1-1 3-2-1 1-3zM1536 245h3l-2 4-1-4zM789 1086h2l-1 3h-2l1-3zM1879 740l2 1-1 3-2-2 1-2zM712 727h3v2l-4-1 1-1zM1865 697l2 3h-3l1-3zM1998 962l2 4-2 1v-5zM1861 712l2 1v2l-3-1 1-2zM1986 702h3v2h-3v-2zM1836 651h2l-1 3-2-2 1-1zM1945 641h4v2l-4-2zM647 608h3v2h-3v-2zM1929 597h2v3h-2v-3zM1775 539l2 2-3 1 1-3zM1180 414h2v3h-2v-3zM1771 323l2 1v2l-3-1 1-2zM1065 1263h2l-1 3-1-3zM1516 1227l3 2-4-1 1-1zM2095 904h5v1h-5v-1zM1440 878h2v2l-3-1 1-1zM803 868h4l-1 2-3-2zM615 760l3 1-2 2-1-3zM1858 707l1 4-2-2 1-2zM1199 670h1v5h-1v-5zM1767 572l3 1-3 1v-2zM1767 544h2l-1 4-1-4zM1865 464l1 4-2-3 1-1zM2462 1461h2v2h-2v-2zM2462 1454h2v2h-2v-2zM2469 1447h2v2h-2v-2zM414 1263h2v2h-2v-2zM252 1260l2 1-2 2v-3zM824 1145h2v2h-2v-2zM788 1076h2v2h-2v-2zM2153 983l1 4zM716 946h2v2h-2v-2zM2066 846h2v2h-2v-2zM655 838l2 2-2 1v-3zM644 813h2v2h-2v-2zM1868 709h2v2h-2v-2zM1134 566l1 4zM1868 497l3 1-3 1v-2zM2446 1462l3 1zM418 1242l1 2-2-1 1-1zM813 1145h2l-1 2-1-2zM2088 1102l3 1zM2063 1076l1 2-2-1 1-1zM2041 1019l3 1zM2163 1015h2l-1 2-1-2zM2012 975l2 2h-2v-2zM2007 972l3 1zM2077 839l2 1-2 1v-2zM1414 810h2l-1 2-1-2zM2015 767h2l-1 2-1-2zM1220 713l2 1-2 1v-2zM1829 644l1 2-2-1 1-1zM1901 554l1 2-2-1 1-1zM1854 468l2 1-2 1v-2zM1087 464l2 2h-2v-2zM1717 432l2 1-2 1v-2zM1143 353l3 1zM414 209l3 1zM14 54h2l-1 2-1-2zM2469 36h2l-1 2-1-2zM2210 1260l2 1zM424 1246l2 1zM2156 1235l2 1zM2275 1221l2 1zM2242 1174l2 1zM2084 1120l2 1zM2044 1030l2 1zM2131 958l2 1zM1472 940l2 1zM1893 753l2 1zM1886 738l2 1zM1861 695l2 1zM1299 612l2 1zM1868 490l2 1zM1735 483l2 1zM547 407l2 1zM1814 378l2 1zM2473 40l2 1z" fill="#121212"/></svg>