<?xml version="1.0" encoding="UTF-8"?>
<svg version="1.1" xmlns="http://www.w3.org/2000/svg" width="800" height="800">
<path d="M0 0 C1.29381592 0.30309082 1.29381592 0.30309082 2.61376953 0.61230469 C69.7887283 16.35283748 135.75277141 55.60370929 181 108 C182.02867187 109.10408203 182.02867187 109.10408203 183.078125 110.23046875 C190.32813255 118.01509916 196.6734641 126.46303303 203 135 C203.50966309 135.68481445 204.01932617 136.36962891 204.54443359 137.07519531 C213.26156888 148.86278457 220.74736077 161.26954416 228 174 C228.57161865 174.98419922 228.57161865 174.98419922 229.15478516 175.98828125 C272.33385652 250.49334556 279.88057533 344.33792337 258.86181641 426.73168945 C245.32747978 477.49083681 220.05598434 526.7740327 184.265625 565.5234375 C182.41767481 567.54343822 180.62825533 569.59271481 178.84375 571.66796875 C174.51491147 576.62611999 169.90496409 581.28693735 165.25 585.9375 C164.36183594 586.8248584 163.47367188 587.7122168 162.55859375 588.62646484 C156.6248184 594.5048554 150.60301138 599.88631138 144 605 C142.12210881 606.60078117 140.24728283 608.20516285 138.375 609.8125 C130.91786886 616.02197728 123.03888346 621.57231846 115 627 C114.27989746 627.48726562 113.55979492 627.97453125 112.81787109 628.4765625 C51.4560621 669.57674887 -24.20405686 690.84033795 -98 688 C-99.06766602 687.95891113 -100.13533203 687.91782227 -101.23535156 687.87548828 C-153.86009919 685.59221326 -204.83904106 672.84448767 -251.75 648.62890625 C-252.8225 648.09136719 -253.895 647.55382812 -255 647 C-255.67901367 646.57855713 -256.35802734 646.15711426 -257.05761719 645.72290039 C-261.81382429 644.55436992 -265.75998839 646.32538491 -270.328125 647.8046875 C-271.34936462 648.12148468 -272.37060425 648.43828186 -273.42279053 648.76467896 C-276.70345693 649.78640994 -279.97656568 650.83035882 -283.25 651.875 C-285.37584584 652.54052162 -287.50214467 653.20459809 -289.62890625 653.8671875 C-301.25813472 657.50129354 -312.85805551 661.22849971 -324.46051025 664.94702148 C-336.96402064 668.95348546 -349.48068463 672.9182387 -362 676.875 C-363.24424744 677.26840576 -364.48849487 677.66181152 -365.77044678 678.06713867 C-381.45561594 683.0238139 -397.15494594 687.91846975 -412.91430664 692.63378906 C-423.8256623 695.91029906 -434.66423394 699.39789646 -445.48681641 702.95507812 C-446.70675293 703.35404297 -447.92668945 703.75300781 -449.18359375 704.1640625 C-450.26181396 704.51936035 -451.34003418 704.8746582 -452.45092773 705.24072266 C-455 706 -455 706 -457 706 C-454.39453987 695.39347248 -450.73303882 685.13080625 -447.1875 674.8125 C-446.5184894 672.85730929 -445.84962787 670.90206757 -445.1809082 668.94677734 C-440.45458962 655.14735642 -435.64625745 641.37729383 -430.8053894 627.6177063 C-426.59604187 615.64959693 -422.51908808 603.64651724 -418.5456543 591.59814453 C-415.81578832 583.3540504 -412.94809728 575.16841175 -410 567 C-406.35473932 556.89403339 -402.84283627 546.75125621 -399.4375 536.5625 C-399.21940674 535.91321533 -399.00131348 535.26393066 -398.77661133 534.5949707 C-398.15879709 532.75327798 -397.54609115 530.90987403 -396.93359375 529.06640625 C-396.58353271 528.01396729 -396.23347168 526.96152832 -395.87280273 525.87719727 C-394.11109094 520.88942866 -394.11109094 520.88942866 -394.81347656 515.86962891 C-395.25143555 515.16241699 -395.68939453 514.45520508 -396.140625 513.7265625 C-396.62877686 512.91405029 -397.11692871 512.10153809 -397.61987305 511.2644043 C-398.15781494 510.39340088 -398.69575684 509.52239746 -399.25 508.625 C-410.32249355 489.94006507 -418.87865226 470.50183345 -426 450 C-426.28713867 449.17580566 -426.57427734 448.35161133 -426.87011719 447.50244141 C-434.287936 425.89770856 -438.91381111 403.60247585 -442 381 C-442.11859375 380.18869629 -442.2371875 379.37739258 -442.359375 378.54150391 C-454.51265781 293.23341611 -427.56479159 202.27817583 -376.43798828 133.90185547 C-373.38084839 129.85854142 -370.22265569 125.91177703 -367 122 C-366.35417969 121.18144531 -365.70835937 120.36289063 -365.04296875 119.51953125 C-353.13871997 104.56744141 -339.57108711 90.36490139 -325 78 C-323.65421875 76.82050781 -323.65421875 76.82050781 -322.28125 75.6171875 C-307.26542863 62.54258423 -291.00996093 51.30659786 -274 41 C-272.88020752 40.31043213 -272.88020752 40.31043213 -271.73779297 39.60693359 C-258.04573962 31.19963706 -243.70750085 24.43761084 -229 18 C-228.13294434 17.61714844 -227.26588867 17.23429687 -226.37255859 16.83984375 C-193.37279591 2.42447291 -157.65019136 -5.09570767 -122 -9 C-121.08009277 -9.1038501 -120.16018555 -9.2077002 -119.21240234 -9.31469727 C-79.37579214 -13.24738555 -38.76655331 -9.4721385 0 0 Z M-135 49 C-136.02464355 49.17160645 -137.04928711 49.34321289 -138.10498047 49.52001953 C-188.52872742 58.20466981 -236.04124986 79.00116025 -276 111 C-276.91910156 111.72574219 -277.83820313 112.45148438 -278.78515625 113.19921875 C-292.85634778 124.47641829 -306.48132065 137.10706225 -318 151 C-318.40766602 151.4832373 -318.81533203 151.96647461 -319.23535156 152.46435547 C-368.91986763 211.57792015 -392.11441951 287.63904781 -386.52734375 364.2890625 C-382.40436431 410.53338098 -367.01171177 461.16563965 -338.6171875 498.5625 C-338.0917334 499.26479736 -337.5662793 499.96709473 -337.02490234 500.69067383 C-336.04490135 501.97396363 -335.03396704 503.23451352 -333.98681641 504.46362305 C-332.54806194 506.34033965 -331.71723103 507.74144118 -331 510 C-331.37846375 512.42764282 -331.37846375 512.42764282 -332.19018555 515.11572266 C-332.48061737 516.09049057 -332.77104919 517.06525848 -333.07028198 518.06956482 C-334.43747915 522.37891734 -335.83184997 526.67336093 -337.30078125 530.94921875 C-337.61398315 531.86913101 -337.92718506 532.78904327 -338.24987793 533.73683167 C-339.26733804 536.7215657 -340.28982131 539.70455046 -341.3125 542.6875 C-342.02383681 544.77110589 -342.7350164 546.85476545 -343.44604492 548.93847656 C-346.94367599 559.17271769 -350.47547107 569.39439516 -354.0625 579.59765625 C-354.54181221 580.96170845 -354.54181221 580.96170845 -355.0308075 582.35331726 C-356.53702225 586.63598618 -358.04880858 590.9165704 -359.56958008 595.1940918 C-362.35522481 603.0606239 -365.00277124 610.88660548 -367 619 C-357.13630268 616.68691114 -347.48759224 613.79707108 -337.8125 610.8125 C-336.19427653 610.31552089 -334.5760308 609.81861427 -332.95776367 609.32177734 C-324.22747577 606.63669471 -315.5107054 603.91243252 -306.8125 601.125 C-305.40810669 600.68256958 -305.40810669 600.68256958 -303.9753418 600.23120117 C-298.10644732 598.36963205 -292.28209074 596.40741986 -286.47483826 594.36306763 C-282.79093018 593.07501546 -279.09517761 591.82318414 -275.39755249 590.57513428 C-273.56624442 589.94755785 -271.74017601 589.30445283 -269.92007446 588.64508057 C-255.43122546 583.40698811 -255.43122546 583.40698811 -249.62988281 584.82202148 C-246.83037475 586.33378487 -244.47883778 588.01290689 -242 590 C-240.56848219 590.84734733 -239.12096979 591.66846504 -237.65625 592.45703125 C-236.97812256 592.8425415 -236.29999512 593.22805176 -235.60131836 593.62524414 C-165.00354832 633.51335332 -81.06534444 642.02045386 -3.1875 620.6875 C8.14320619 617.45645763 19.1246482 613.52273843 30 609 C31.22614014 608.49412354 31.22614014 608.49412354 32.47705078 607.97802734 C76.46321752 589.61487036 118.87320164 558.98054017 148 521 C149.01356488 519.71424583 150.02795096 518.42913876 151.04296875 517.14453125 C167.85628858 495.70767316 181.75462888 472.27714648 192 447 C192.44569336 445.90220215 192.44569336 445.90220215 192.90039062 444.78222656 C205.2892595 413.78306337 211.56333144 381.29127269 213 348 C213.05196533 346.81736572 213.05196533 346.81736572 213.10498047 345.61083984 C216.02044187 266.60364669 182.39407137 193.31025712 129.86132812 136.04882812 C126.77897938 132.74344402 123.57883534 129.70465799 120.11328125 126.80859375 C117.56750573 124.62986165 115.17636898 122.3109892 112.75 120 C98.93193837 107.16283627 83.10487667 96.71310162 67 87 C66.40622559 86.63358398 65.81245117 86.26716797 65.20068359 85.88964844 C20.31946936 58.20739141 -33.84023014 45.78245076 -86.125 45.75 C-87.59231064 45.74898788 -87.59231064 45.74898788 -89.08926392 45.74795532 C-104.59347925 45.76490917 -119.6860384 46.37643145 -135 49 Z " fill="#FDFDFD" transform="translate(494,52)"/>
<path d="M0 0 C1.83498047 0.04060547 1.83498047 0.04060547 3.70703125 0.08203125 C4.88652344 0.12199219 6.06601562 0.16195312 7.28125 0.203125 C8.8909668 0.25194824 8.8909668 0.25194824 10.53320312 0.30175781 C15.82092851 1.10066036 19.04296801 3.83481614 22.30761719 7.98242188 C24.53223841 11.28018142 26.05995884 14.8545725 27.625 18.5 C28.19468506 19.79623291 28.19468506 19.79623291 28.77587891 21.11865234 C30.03121474 23.98994777 31.26818696 26.86853842 32.5 29.75 C32.93119141 30.75772461 33.36238281 31.76544922 33.80664062 32.80371094 C36.10285022 38.18450664 38.37919941 43.57324898 40.640625 48.96875 C42.59669615 53.62967958 44.58995495 58.27242472 46.609375 62.90625 C47.1142041 64.07333496 47.6190332 65.24041992 48.13916016 66.44287109 C49.10474251 68.67326161 50.07796161 70.900367 51.06005859 73.12353516 C56.92870705 86.75205765 56.92870705 86.75205765 54.19921875 93.64453125 C53.55478679 94.96361589 52.88293895 96.26958024 52.1875 97.5625 C51.82793213 98.25537109 51.46836426 98.94824219 51.09790039 99.66210938 C47.48503785 106.31304336 42.84688822 111.40311178 37.5 116.75 C29.96225941 124.22732474 29.96225941 124.22732474 26.265625 133.6328125 C27.45078773 149.39547682 46.4171104 167.34122584 56.5 178.75 C57.67175781 180.08804688 57.67175781 180.08804688 58.8671875 181.453125 C81.74268169 207.25731568 109.3269095 224.65761763 140.5 238.75 C141.18352539 239.06050293 141.86705078 239.37100586 142.57128906 239.69091797 C150.80664369 243.3665726 155.84701252 244.63432916 164.5 241.75 C165.17513016 240.4209321 165.83973801 239.08651649 166.5 237.75 C168.15468698 235.84640284 169.82470521 234.01113374 171.5625 232.1875 C177.80256929 225.50368336 183.65491926 218.56309668 189.140625 211.2421875 C189.58591553 210.65107178 190.03120605 210.05995605 190.48999023 209.45092773 C191.3512924 208.30247185 192.20537996 207.14855822 193.05102539 205.98852539 C196.16186357 201.83242512 198.32745592 200.07357039 203.4375 199.3125 C214.00098681 199.64889011 225.19857402 206.80697857 234.5625 211.25 C236.52433899 212.17544029 238.48682276 213.09950309 240.44937134 214.0234375 C241.78944562 214.65441537 243.12926863 215.28592718 244.46884155 215.91796875 C249.07439355 218.08853846 253.69453335 220.22520162 258.32421875 222.34375 C259.58524237 222.9224448 260.84622927 223.5012196 262.10717773 224.08007812 C264.46499124 225.16233526 266.82538604 226.23816615 269.18774414 227.31054688 C287.00338324 235.50507485 287.00338324 235.50507485 290.5 240.75 C290.72658439 243.5661203 290.83259674 246.24691754 290.8125 249.0625 C290.80758545 249.86776123 290.8026709 250.67302246 290.79760742 251.50268555 C290.48511755 267.68966091 285.99995741 283.98215672 274.5 295.75 C266.58380965 303.27555105 258.12730281 308.74021612 248.5 313.75 C247.60925781 314.23339844 246.71851563 314.71679688 245.80078125 315.21484375 C238.07046355 319.109598 229.82353223 320.72219051 221.38769531 322.37451172 C219.92668453 322.66512664 218.47305193 322.99296879 217.0234375 323.3359375 C202.13186407 325.77944645 187.76826488 322.91248769 173.5 318.75 C172.69175781 318.51474609 171.88351562 318.27949219 171.05078125 318.03710938 C165.493892 316.39179877 159.9900381 314.60515333 154.5 312.75 C153.69739746 312.47929688 152.89479492 312.20859375 152.06787109 311.9296875 C146.18853798 309.93376874 140.33884448 307.86116395 134.5 305.75 C133.64647949 305.44336426 132.79295898 305.13672852 131.91357422 304.82080078 C100.42265967 293.43448885 72.05056525 277.46984004 46.5 255.75 C45.54222656 254.9765625 44.58445312 254.203125 43.59765625 253.40625 C35.14647543 246.49916105 27.41495965 238.88075109 19.6875 231.1875 C19.15179382 230.65697021 18.61608765 230.12644043 18.06414795 229.57983398 C11.06770019 222.63670014 4.64825148 215.46905909 -1.5 207.75 C-2.4348008 206.64818988 -3.37616425 205.55186205 -4.328125 204.46484375 C-11.38699261 196.36991654 -17.67371138 187.82358754 -23.86816406 179.05517578 C-25.47260349 176.78870106 -27.09001184 174.53204836 -28.7109375 172.27734375 C-51.76356992 140.10862279 -69.34717642 104.90062842 -64.00390625 64.1640625 C-59.9457778 42.291438 -47.85339849 20.9087375 -30.5 6.75 C-20.03878487 0.33448634 -12.03630484 -0.41854379 0 0 Z " fill="#FDFDFD" transform="translate(297.5,231.25)"/>
</svg>
